<svg xmlns="http://www.w3.org/2000/svg" viewBox="0 0 19 33.45">
  <path d="M3.15 9.7a.54.54 0 0 0 .61-.46V3.81a.54.54 0 0 0-1.07 0v5.43a.54.54 0 0 0 .46.46zM3.3 15.59a.54.54 0 0 0-.61.46v6.85a.54.54 0 0 0 1.07 0v-6.85a.54.54 0 0 0-.46-.46z"/>
  <path d="M18.16 0H.84a.84.84 0 0 0-.55.2.83.83 0 0 0-.24.63V12.3a.5.5 0 0 0 0 .44v18.91a.82.82 0 0 0 .2.54.85.85 0 0 0 .59.24h1.84v.44a.51.51 0 0 0 .51.51h.48a.51.51 0 0 0 .51-.51v-.46h10.64v.44a.51.51 0 0 0 .51.51h.48a.51.51 0 0 0 .51-.51v-.46h1.8a.84.84 0 0 0 .59-.24.83.83 0 0 0 .25-.59V12.72a.52.52 0 0 0 0-.4V.84a.82.82 0 0 0-.2-.54V.24a.84.84 0 0 0-.6-.24zm-.23 1.07V12H1.07V1.07zM1.07 31.42V13.05h16.86v18.37zm17.09.23L18 31.5l.16.12z"/>
</svg>
