<?xml version="1.0" encoding="UTF-8"?>
<svg width="28px" height="36px" viewBox="0 0 28 36" version="1.1" xmlns="http://www.w3.org/2000/svg" xmlns:xlink="http://www.w3.org/1999/xlink">
    <!-- Generator: Sketch 48.2 (47327) - http://www.bohemiancoding.com/sketch -->
    <title>images_icon_manuals</title>
    <desc>Created with Sketch.</desc>
    <defs></defs>
    <g id="Artboard" stroke="none" stroke-width="1" fill="none" fill-rule="evenodd" transform="translate(-283.000000, -551.000000)">
        <g id="images_icon_manuals" transform="translate(283.000000, 551.000000)" fill-rule="nonzero">
            <g id="noun_911541_cc" fill="#959595">
                <path d="M21.640678,25.344 L9.11186441,25.344 C8.82711864,25.344 8.63728814,25.536 8.63728814,25.824 C8.63728814,26.112 8.82711864,26.304 9.11186441,26.304 L21.640678,26.304 C21.9254237,26.304 22.1152542,26.112 22.1152542,25.824 C22.1152542,25.536 21.9254237,25.344 21.640678,25.344 Z" id="Shape"></path>
                <path d="M21.640678,28.32 L9.11186441,28.32 C8.82711864,28.32 8.63728814,28.512 8.63728814,28.8 C8.63728814,29.088 8.82711864,29.28 9.11186441,29.28 L21.640678,29.28 C21.9254237,29.28 22.1152542,29.088 22.1152542,28.8 C22.1152542,28.512 21.9254237,28.32 21.640678,28.32 Z" id="Shape"></path>
                <path d="M27.4305085,0.384 L1.80338983,0.384 C1.51864407,0.384 1.32881356,0.576 1.32881356,0.864 L1.32881356,2.64 L0.522033898,2.64 C0.237288136,2.64 0.0474576271,2.832 0.0474576271,3.12 C0.0474576271,3.408 0.237288136,3.6 0.522033898,3.6 L1.32881356,3.6 L1.32881356,5.328 L0.522033898,5.328 C0.237288136,5.328 0.0474576271,5.52 0.0474576271,5.808 C0.0474576271,6.096 0.237288136,6.288 0.522033898,6.288 L1.32881356,6.288 L1.32881356,8.016 L0.522033898,8.016 C0.237288136,8.016 0.0474576271,8.208 0.0474576271,8.496 C0.0474576271,8.784 0.237288136,8.976 0.522033898,8.976 L1.32881356,8.976 L1.32881356,10.704 L0.522033898,10.704 C0.237288136,10.704 0.0474576271,10.896 0.0474576271,11.184 C0.0474576271,11.472 0.237288136,11.664 0.522033898,11.664 L1.32881356,11.664 L1.32881356,13.44 L0.522033898,13.44 C0.237288136,13.44 0.0474576271,13.632 0.0474576271,13.92 C0.0474576271,14.208 0.237288136,14.4 0.522033898,14.4 L1.32881356,14.4 L1.32881356,16.128 L0.522033898,16.128 C0.237288136,16.128 0.0474576271,16.32 0.0474576271,16.608 C0.0474576271,16.896 0.237288136,17.088 0.522033898,17.088 L1.32881356,17.088 L1.32881356,18.816 L0.522033898,18.816 C0.237288136,18.816 0.0474576271,19.008 0.0474576271,19.296 C0.0474576271,19.584 0.237288136,19.776 0.522033898,19.776 L1.32881356,19.776 L1.32881356,21.504 L0.522033898,21.504 C0.237288136,21.504 0.0474576271,21.696 0.0474576271,21.984 C0.0474576271,22.272 0.237288136,22.464 0.522033898,22.464 L1.32881356,22.464 L1.32881356,24.192 L0.522033898,24.192 C0.237288136,24.192 0.0474576271,24.384 0.0474576271,24.672 C0.0474576271,24.96 0.237288136,25.152 0.522033898,25.152 L1.32881356,25.152 L1.32881356,26.88 L0.522033898,26.88 C0.237288136,26.88 0.0474576271,27.072 0.0474576271,27.36 C0.0474576271,27.648 0.237288136,27.84 0.522033898,27.84 L1.32881356,27.84 L1.32881356,29.568 L0.522033898,29.568 C0.237288136,29.568 0.0474576271,29.76 0.0474576271,30.048 C0.0474576271,30.336 0.237288136,30.528 0.522033898,30.528 L1.32881356,30.528 L1.32881356,32.256 L0.522033898,32.256 C0.237288136,32.256 0.0474576271,32.448 0.0474576271,32.736 C0.0474576271,33.024 0.237288136,33.216 0.522033898,33.216 L1.32881356,33.216 L1.32881356,35.328 C1.32881356,35.616 1.51864407,35.808 1.80338983,35.808 L27.4305085,35.808 C27.7152542,35.808 27.9050847,35.616 27.9050847,35.328 L27.9050847,0.768 C27.9050847,0.576 27.6677966,0.384 27.4305085,0.384 Z M26.9559322,34.944 L2.2779661,34.944 L2.2779661,33.312 L3.08474576,33.312 C3.36949153,33.312 3.55932203,33.12 3.55932203,32.832 C3.55932203,32.544 3.36949153,32.352 3.08474576,32.352 L2.2779661,32.352 L2.2779661,30.624 L3.08474576,30.624 C3.36949153,30.624 3.55932203,30.432 3.55932203,30.144 C3.55932203,29.856 3.36949153,29.664 3.08474576,29.664 L2.2779661,29.664 L2.2779661,27.936 L3.08474576,27.936 C3.36949153,27.936 3.55932203,27.744 3.55932203,27.456 C3.55932203,27.168 3.36949153,26.976 3.08474576,26.976 L2.2779661,26.976 L2.2779661,25.248 L3.08474576,25.248 C3.36949153,25.248 3.55932203,25.056 3.55932203,24.768 C3.55932203,24.48 3.36949153,24.288 3.08474576,24.288 L2.2779661,24.288 L2.2779661,22.56 L3.08474576,22.56 C3.36949153,22.56 3.55932203,22.368 3.55932203,22.08 C3.55932203,21.792 3.36949153,21.6 3.08474576,21.6 L2.2779661,21.6 L2.2779661,19.872 L3.08474576,19.872 C3.36949153,19.872 3.55932203,19.68 3.55932203,19.392 C3.55932203,19.104 3.36949153,18.912 3.08474576,18.912 L2.2779661,18.912 L2.2779661,17.184 L3.08474576,17.184 C3.36949153,17.184 3.55932203,16.992 3.55932203,16.704 C3.55932203,16.416 3.36949153,16.224 3.08474576,16.224 L2.2779661,16.224 L2.2779661,14.4 L3.08474576,14.4 C3.36949153,14.4 3.55932203,14.208 3.55932203,13.92 C3.55932203,13.632 3.36949153,13.44 3.08474576,13.44 L2.2779661,13.44 L2.2779661,11.712 L3.08474576,11.712 C3.36949153,11.712 3.55932203,11.52 3.55932203,11.232 C3.55932203,10.944 3.36949153,10.752 3.08474576,10.752 L2.2779661,10.752 L2.2779661,9.024 L3.08474576,9.024 C3.36949153,9.024 3.55932203,8.832 3.55932203,8.544 C3.55932203,8.256 3.36949153,8.064 3.08474576,8.064 L2.2779661,8.064 L2.2779661,6.336 L3.08474576,6.336 C3.36949153,6.336 3.55932203,6.144 3.55932203,5.856 C3.55932203,5.568 3.36949153,5.376 3.08474576,5.376 L2.2779661,5.376 L2.2779661,3.648 L3.08474576,3.648 C3.36949153,3.648 3.55932203,3.456 3.55932203,3.168 C3.55932203,2.88 3.36949153,2.688 3.08474576,2.688 L2.2779661,2.688 L2.2779661,1.392 L26.9559322,1.392 L26.9559322,34.944 Z" id="Shape"></path>
            </g>
            <g id="noun_1569917_cc" transform="translate(14.711864, 13.920000) rotate(90.000000) translate(-14.711864, -13.920000) translate(9.016949, 9.120000)" fill="#000000" stroke="#959595" stroke-width="0.5">
                <g id="Group" transform="translate(0.000000, 0.153077)">
                    <path d="M7.53403142,0.161388 C7.44212973,0.06438 7.28506634,0.063684 7.19658159,0.150108 C7.10664939,0.237924 7.10005278,0.399132 7.18542905,0.491412 L10.6038874,4.166424 L0.237326339,4.166424 C0.106272102,4.166424 3.82033898e-05,4.273872 3.82033898e-05,4.406424 C3.82033898e-05,4.538976 0.106272102,4.646424 0.237326339,4.646424 L10.6038874,4.646424 L7.18542905,8.321424 C7.09998159,8.413704 7.10524939,8.576328 7.19658159,8.662728 C7.28784261,8.749128 7.43470261,8.751264 7.53403142,8.651448 L11.3306772,4.571448 C11.4209179,4.459128 11.3971891,4.321464 11.3306772,4.2414 L7.53403142,0.161388 Z" id="Shape"></path>
                </g>
            </g>
        </g>
    </g>
</svg>
