<?xml version="1.0" encoding="utf-8"?>
<!-- Generator: Adobe Illustrator 22.1.0, SVG Export Plug-In . SVG Version: 6.00 Build 0)  -->
<svg version="1.1" id="Layer_1" xmlns="http://www.w3.org/2000/svg" xmlns:xlink="http://www.w3.org/1999/xlink" x="0px" y="0px"
	 viewBox="0 0 18 23.4" style="enable-background:new 0 0 18 23.4;" xml:space="preserve">
<path d="M12.9,23.4c0.2,0,0.3-0.1,0.4-0.2l4.5-4.5c0.1-0.1,0.2-0.3,0.2-0.5V2c0-1.1-0.9-1.9-1.9-2H1.9C0.9,0,0,0.9,0,2v19.5
	c0,1.1,0.9,1.9,1.9,2L12.9,23.4z M13.5,21.1v-2.3h2.3L13.5,21.1z M1.3,21.4V2c0-0.3,0.3-0.6,0.6-0.6c0,0,0,0,0,0h14.1
	c0.3,0,0.6,0.3,0.6,0.6c0,0,0,0,0,0v15.6h-3.2c-0.7,0-1.3,0.6-1.3,1.3V22H1.9C1.6,22.1,1.3,21.8,1.3,21.4
	C1.3,21.4,1.3,21.4,1.3,21.4L1.3,21.4z"/>
</svg>
