<svg xmlns="http://www.w3.org/2000/svg" viewBox="0 0 28.34 36">
  <path d="M27.74 0H.6a.6.6 0 0 0-.6.6v33.2a.6.6 0 0 0 .6.6H2V36h1.25v-1.6h21.84V36h1.21v-1.6h1.44a.6.6 0 0 0 .6-.6V.6a.6.6 0 0 0-.6-.6zm-.61 33.2H1.21V9.09h25.92zm0-25.31H1.21V1.2h25.93z"/>
  <path d="M14.31 30.75a9.6 9.6 0 1 0-9.67-9.53 9.6 9.6 0 0 0 9.67 9.53zm.06-18a8.4 8.4 0 0 1-.18 16.8 8.4 8.4 0 1 1 .2-16.8z"/>
  <path d="M14.27 28.3a7.15 7.15 0 1 0-7.2-7.1 7.15 7.15 0 0 0 7.2 7.1zm-.1-13.2a6 6 0 1 1-6 6 6 6 0 0 1 6-6zM2.98 3.41h1.21v2.27H2.98zM5.86 3.41h1.21v2.27H5.86zM8.75 3.41h1.21v2.27H8.75zM19.89 3.95h4.86v1.2h-4.86z"/>
</svg>
