<?xml version="1.0" encoding="UTF-8"?>
<svg width="36px" height="28px" viewBox="0 0 36 28" version="1.1" xmlns="http://www.w3.org/2000/svg" xmlns:xlink="http://www.w3.org/1999/xlink">
    <!-- Generator: Sketch 48.2 (47327) - http://www.bohemiancoding.com/sketch -->
    <title>images_icon_register</title>
    <desc>Created with Sketch.</desc>
    <defs></defs>
    <g id="Artboard" stroke="none" stroke-width="1" fill="none" fill-rule="evenodd" transform="translate(-353.000000, -551.000000)">
        <g id="images_icon_register" transform="translate(353.000000, 551.000000)" fill="#959595" fill-rule="nonzero">
            <g id="Group">
                <path d="M27.1252394,18.0473208 C26.8448451,18.0473208 26.6181972,18.284 26.6181972,18.5756226 L26.6181972,26.6903396 L1.48411268,26.6903396 L1.48411268,2.828 L23.4846761,2.828 C23.7650704,2.828 23.9917183,2.59132075 23.9917183,2.29969811 C23.9917183,2.00807547 23.7650704,1.77139623 23.4846761,1.77139623 L0.977070423,1.77139623 C0.696676056,1.77139623 0.470028169,2.00807547 0.470028169,2.29969811 L0.470028169,27.2191698 C0.470028169,27.5113208 0.696676056,27.7474717 0.977070423,27.7474717 L27.1252394,27.7474717 C27.4056338,27.7474717 27.6322817,27.5113208 27.6322817,27.2191698 L27.6322817,18.5761509 C27.6322817,18.284 27.4056338,18.0473208 27.1252394,18.0473208 Z" id="Shape"></path>
                <path d="M15.6534085,6.24769811 C15.6534085,5.95554717 15.4267606,5.71939623 15.1463662,5.71939623 L4.63842254,5.71939623 C4.35802817,5.71939623 4.13138028,5.95554717 4.13138028,6.24769811 C4.13138028,6.53984906 4.35802817,6.776 4.63842254,6.776 L15.1463662,6.776 C15.4267606,6.776 15.6534085,6.53984906 15.6534085,6.24769811 Z" id="Shape"></path>
                <path d="M4.63842254,11.0790189 L9.68095775,11.0790189 C9.96135211,11.0790189 10.188,10.8428679 10.188,10.550717 C10.188,10.258566 9.96135211,10.0224151 9.68095775,10.0224151 L4.63842254,10.0224151 C4.35802817,10.0224151 4.13138028,10.258566 4.13138028,10.550717 C4.13138028,10.8428679 4.35853521,11.0790189 4.63842254,11.0790189 Z" id="Shape"></path>
                <path d="M14.2504225,14.8532075 C14.2504225,14.5610566 14.0237746,14.3249057 13.7433803,14.3249057 L4.63842254,14.3249057 C4.35802817,14.3249057 4.13138028,14.5610566 4.13138028,14.8532075 C4.13138028,15.1453585 4.35802817,15.3815094 4.63842254,15.3815094 L13.7433803,15.3815094 C14.0237746,15.3815094 14.2504225,15.1453585 14.2504225,14.8532075 Z" id="Shape"></path>
                <path d="M4.63842254,19.6845283 L8.37076056,19.6845283 C8.65115493,19.6845283 8.87780282,19.4483774 8.87780282,19.1562264 C8.87780282,18.8640755 8.65115493,18.6279245 8.37076056,18.6279245 L4.63842254,18.6279245 C4.35802817,18.6279245 4.13138028,18.8640755 4.13138028,19.1562264 C4.13138028,19.4483774 4.35853521,19.6845283 4.63842254,19.6845283 Z" id="Shape"></path>
                <path d="M4.63842254,23.9870189 L10.3375775,23.9870189 C10.6179718,23.9870189 10.8446197,23.7508679 10.8446197,23.458717 C10.8446197,23.166566 10.6179718,22.9304151 10.3375775,22.9304151 L4.63842254,22.9304151 C4.35802817,22.9304151 4.13138028,23.166566 4.13138028,23.458717 C4.13138028,23.7508679 4.35853521,23.9870189 4.63842254,23.9870189 Z" id="Shape"></path>
                <path d="M34.7947606,1.19818868 C34.2552676,0.636075472 33.5748169,0.338641509 32.8269296,0.338641509 C31.8736901,0.338641509 30.9067606,0.821509434 30.0295775,1.736 L14.8304789,17.5729057 C14.8269296,17.5766038 14.8259155,17.5818868 14.8223662,17.5845283 C14.7949859,17.6156981 14.7762254,17.6521509 14.7559437,17.6891321 C14.7417465,17.7150189 14.724507,17.7387925 14.7153803,17.7662642 C14.7128451,17.7736604 14.7067606,17.7784151 14.7047324,17.7858113 L13.0360563,23.3166038 C12.9787606,23.5062642 13.0289577,23.7138868 13.1658592,23.8533585 C13.2616901,23.9516226 13.3894648,24.0033962 13.5197746,24.0033962 C13.5745352,24.0033962 13.6298028,23.9938868 13.6835493,23.9748679 L18.8858028,22.1258113 C18.8908732,22.1242264 18.8944225,22.1194717 18.899493,22.1173585 C18.9228169,22.1078491 18.9420845,22.0909434 18.9643944,22.0782642 C19.0024225,22.0555472 19.0404507,22.0349434 19.0713803,22.0037736 C19.0734085,22.0016604 19.0764507,22.0011321 19.0784789,21.9990189 L34.2785915,6.16158491 C36.1019155,4.26286792 35.8519437,2.30022642 34.7947606,1.19818868 Z M30.3885634,2.856 L31.7961127,4.32203774 L33.2031549,5.78807547 L18.720507,20.8790189 L15.9059155,17.9464151 L30.3885634,2.856 Z M15.4211831,18.9353962 L17.7870423,21.4004528 L14.304169,22.6382642 L15.4211831,18.9353962 Z M33.9018592,5.02256604 L31.1232676,2.128 C32.1738592,1.23622642 33.3268732,1.16437736 34.0778028,1.94520755 C34.8414085,2.74135849 34.7612958,3.91366038 33.9018592,5.02256604 Z" id="Shape"></path>
            </g>
        </g>
    </g>
</svg>