<svg xmlns="http://www.w3.org/2000/svg" viewBox="0 0 34.8 24.92">
  <path d="M28.85 24.87l-.01-.01-.01-.01v-.01h-.02v-.01l-.01-.01h-.01v-.01l-.01-.01h-.01l-.01-.01-.01-.01h-.02l-.02-.02-.01-.01-.03-.01-.03-.01-.02-.01-.03-.02-.04-.01-.06-.02-.07-.02-.09-.03-.08-.02-.2-.05-.22-.04-.25-.05-.59-.09-.69-.08-.8-.08-1.83-.13-2.05-.09-4.22-.07-4.22.07-2.05.09-1.83.13-.8.08-.69.08-.59.09-.25.05-.22.04-.2.05-.08.02-.09.03-.07.02-.06.02-.04.01-.03.02-.02.01h-.03l-.02.02-.02.01-.02.01-.02.01-.01.01h-.01l-.01.01v.01h-.01l-.01.01v.01h-.02v.01l-.01.01h-.01v.02h-.01v.01l-.01.01v.03h22.92v-.03l-.01-.01v-.01zM0 0v23.46h34.8V0zm33.63 22.28H1.17V1.17h32.46z"/>
</svg>
