<?xml version="1.0" encoding="UTF-8"?>
<svg width="36px" height="34px" viewBox="0 0 36 34" version="1.1" xmlns="http://www.w3.org/2000/svg" xmlns:xlink="http://www.w3.org/1999/xlink">
    <!-- Generator: Sketch 48.2 (47327) - http://www.bohemiancoding.com/sketch -->
    <title>images_icon_contact</title>
    <desc>Created with Sketch.</desc>
    <defs></defs>
    <g id="Artboard" stroke="none" stroke-width="1" fill="none" fill-rule="evenodd" transform="translate(-423.000000, -551.000000)">
        <g id="images_icon_contact" transform="translate(423.000000, 551.000000)" fill="#959595" fill-rule="nonzero">
            <path d="M33.678,19.907 C36.8751018,15.431044 36.7404755,9.53848827 33.3419216,5.19694393 C29.9433677,0.855399594 24.0178213,-0.993722422 18.5495081,0.580833374 C13.0811949,2.15538917 9.25585203,6.81219955 9,12.206 C5.2703984,13.0422832 2.2111038,15.5509797 0.811012875,18.9211701 C-0.589078054,22.2913605 -0.152360308,26.0955277 1.98,29.104 L0.342,32.64 C0.190709574,32.9614069 0.264652665,33.3376196 0.527998293,33.5863349 C0.79134392,33.8350503 1.18968684,33.9048854 1.53,33.762 L5.274,32.181 C8.48075671,34.1643304 12.5127942,34.5383403 16.0668401,33.1821387 C19.620886,31.8259371 22.2461238,28.9115528 23.094,25.381 C25.559786,25.2939966 27.9520185,24.564421 30.006,23.273 L34.434,25.143 C34.7753648,25.2850107 35.1737752,25.2178185 35.442,24.973 C35.7121052,24.7258967 35.7910679,24.3462375 35.64,24.021 L33.678,19.907 Z M11.7,32.3 C9.62035836,32.3286286 7.58471443,31.733411 5.886,30.6 C5.6239578,30.421011 5.28038151,30.3885622 4.986,30.515 L2.916,31.382 L3.834,29.427 C3.96273145,29.1459764 3.92147593,28.8212801 3.726,28.577 C0.96545649,25.1169751 1.08318184,20.3191021 4.010468,16.9835632 C6.93775417,13.6480244 11.9078022,12.64856 16.0199432,14.5684874 C20.1320843,16.4884148 22.3091481,20.8248114 21.2805351,25.0468263 C20.2519221,29.2688412 16.2870761,32.2705229 11.7,32.3 Z M30.258,21.607 C29.9636185,21.4805622 29.6200422,21.513011 29.358,21.692 C27.6195037,22.9065298 25.555512,23.6367907 23.4,23.8 C23.4,23.545 23.4,23.273 23.4,23.018 C23.4143542,20.0769664 22.1885937,17.2514942 19.9933794,15.1654778 C17.7981652,13.0794615 14.814065,11.9044865 11.7,11.9 L10.8,11.9 C11.1650646,7.21407318 14.6278174,3.25862608 19.4323802,2.03937021 C24.2369431,0.82011434 29.3324788,2.60372106 32.1351645,6.48576656 C34.9378503,10.3678121 34.8346925,15.499229 31.878,19.278 C31.6825241,19.5222801 31.6412685,19.8469764 31.77,20.128 L32.994,22.746 L30.258,21.607 Z" id="Shape"></path>
        </g>
    </g>
</svg>
