<svg xmlns="http://www.w3.org/2000/svg" viewBox="0 0 26.96 35.97">
  <path d="M26.45 3.88h-3.31V.55a.55.55 0 0 0-.55-.55H.55A.55.55 0 0 0 0 .55v31a.55.55 0 0 0 .55.55h3.31v3.32a.55.55 0 0 0 .55.55h22a.55.55 0 0 0 .55-.55v-31a.55.55 0 0 0-.51-.54zM1.1 31V1.11H22V31zm24.8 3.89H5v-2.77h17.59a.55.55 0 0 0 .55-.55V5h2.76z"/>
  <path d="M4.85 6.65h8.42a.56.56 0 0 0 .15-1.11H5a.56.56 0 0 0-.15 1.11zM18.18 9.41H5a.56.56 0 0 0 0 1.11h13.18a.56.56 0 0 0 0-1.11zM18.18 13.29H5a.56.56 0 0 0 0 1.11h13.18a.56.56 0 0 0 0-1.11zM17.29 19.42l-5.51-2.22a.55.55 0 0 0-.41 0l-5.5 2.21a.55.55 0 0 0-.34.56l.55 6.09a.55.55 0 0 0 .28.43l5 2.77a.55.55 0 0 0 .54 0l5-2.77a.55.55 0 0 0 .28-.43l.45-6.06a.55.55 0 0 0-.34-.58zM16 25.69l-4.44 2.48-4.43-2.48-.48-5.39 4.92-2 4.92 2z"/>
  <path d="M11 20.49v1.66l-1.32-1a.55.55 0 0 0-.77.11A.56.56 0 0 0 9 22l1.62 1.22L9 24.48a.56.56 0 0 0-.11.78.55.55 0 0 0 .77.11l1.32-1V26a.55.55 0 0 0 1.1 0v-1.63l1.32 1a.55.55 0 0 0 .77-.11.56.56 0 0 0-.11-.78l-1.62-1.22L14.11 22a.56.56 0 0 0 .11-.78.55.55 0 0 0-.77-.11l-1.32 1v-1.62a.55.55 0 0 0-1.1 0z"/>
</svg>
