<svg xmlns="http://www.w3.org/2000/svg" viewBox="0 0 16 16"><g fill-rule="evenodd"><path d="M8.064 3.984c-2.24 0-4.096 1.789-4.096 4.016 0 2.227 1.824 4.016 4.096 4.016 2.272 0 4.096-1.82 4.096-4.016 0-2.196-1.856-4.016-4.096-4.016zm0 6.589C6.624 10.573 5.44 9.412 5.44 8s1.184-2.573 2.624-2.573c1.44 0 2.624 1.161 2.624 2.573s-1.184 2.573-2.624 2.573z"/><ellipse cx="12.32" cy="3.89" rx=".928" ry=".91"/><path d="M14.72 1.537C13.888.69 12.704.251 11.36.251H4.768C1.984.251.128 2.071.128 4.8v6.431c0 1.35.448 2.51 1.344 3.357.864.816 2.016 1.224 3.328 1.224h6.528c1.376 0 2.528-.44 3.36-1.224.864-.815 1.312-1.976 1.312-3.325V4.8c0-1.318-.448-2.447-1.28-3.263zm-.192 9.726c0 .972-.288 1.757-.864 2.29-.576.533-1.376.816-2.336.816H4.8c-.96 0-1.76-.283-2.336-.816-.576-.565-.864-1.35-.864-2.322V4.8c0-.941.288-1.725.864-2.29.544-.534 1.376-.816 2.336-.816h6.592c.96 0 1.76.282 2.336.847.544.565.864 1.35.864 2.259v6.463h-.064z"/></g></svg>