<svg xmlns="http://www.w3.org/2000/svg" viewBox="0 0 46.03 39.01">
  <path fill="none" d="M41.22 12.51L23.02 3.2l-18.2 9.31 18.2 9.3 18.2-9.3z"/>
  <path d="M45.33 18.23a1.5 1.5 0 0 0-1.5-.07L23.02 28.81 2.21 18.16a1.5 1.5 0 1 0-1.37 2.67l21.5 11a1.5 1.5 0 0 0 1.38 0l21.5-11a1.5 1.5 0 0 0 .13-2.6z"/>
  <path d="M45.33 25.24a1.5 1.5 0 0 0-1.5-.07L23.02 35.81 2.21 25.16a1.5 1.5 0 1 0-1.37 2.67l21.5 11a1.5 1.5 0 0 0 1.38 0l21.5-11a1.5 1.5 0 0 0 .13-2.6z"/>
  <path d="M.83 13.84l21.5 11a1.5 1.5 0 0 0 1.38 0l21.5-11a1.5 1.5 0 0 0 0-2.67L23.71.16a1.49 1.49 0 0 0-1.37 0l-21.5 11a1.5 1.5 0 0 0 0 2.67zM23.02 3.2l18.2 9.3-18.2 9.3-18.21-9.3z"/>
</svg>
