<svg viewBox="0 0 142 23"><path fill-rule="evenodd" d="M141.635 15.93h-13.839l.006.052c.006 1.063.965 3.385 5.784 3.548.106 0 .21.005.319.005 3.462 0 6.64-.667 7.165-.781-.179 1.111-.41 2.552-.522 3.258-1.068.302-3.57.867-7.469.867-10.607 0-11.902-4.961-11.626-8.316.305-3.7 3.913-8.17 11.133-8.107.695.005 1.334.062 1.93.139 1.61.241 8.483 1.724 7.119 9.335zm-9.182-6.355c-2.777.016-4.085 1.704-4.387 3.369h8.164s.267-3.336-3.777-3.369zm-18.494 3.603c3.101 1.363 6.284 2.687 5.797 5.657-.529 3.24-5.359 3.846-9.32 3.846-.319 0-.639-.003-.96-.011-5.442-.147-8.163-.568-8.163-.568l.227-3.522s3.758.682 7.32.792c2.018.061 3.501-.05 3.538-.731.035-.622-.971-.929-3.113-1.772l-1.88-.732c-2.265-.924-5.972-2.253-5.784-5.299.182-2.972 3.852-3.901 6.021-4.206 1.28-.178 2.616-.248 4.472-.226 4.095.048 7.524.771 7.524.771l-.326 3.274s-3.648-.784-7.31-.778c-2.335.003-3.116.26-3.243.647-.223.691 1.064 1.187 2.764 1.857l2.436 1.001zm-15.288 9.365h-6.35s.497-7.559.676-10.362c.146-2.282-1.612-2.252-2.218-2.278-1.781-.076-4.041.242-4.041.242l-.775 12.398h-6.375l.997-15.273s5.018-.573 8.967-.707c.477-.016.935-.022 1.364-.022 1.656 0 2.866.096 3.019.112 2.278.231 5.722.584 5.417 5.365l-.681 10.525zM63.694 15.93l.005.052c.008 1.063.966 3.385 5.785 3.548.105 0 .209.005.318.005 3.462 0 6.64-.667 7.167-.781l-.525 3.258c-1.065.302-3.569.867-7.466.867-10.607 0-11.904-4.961-11.629-8.316.305-3.7 3.915-8.17 11.135-8.107.695.005 1.332.062 1.929.139 1.611.241 8.485 1.724 7.12 9.335H63.694zm4.657-6.355c-2.777.016-4.086 1.704-4.389 3.369h8.166s.267-3.336-3.777-3.369zM49.783 13.18c3.101 1.362 6.284 2.688 5.797 5.656-.528 3.239-5.359 3.845-9.32 3.845-.318 0-.639-.002-.959-.009-5.443-.147-8.164-.57-8.164-.57l.228-3.521s3.758.683 7.319.791c2.018.063 3.502-.047 3.538-.73.034-.621-.971-.929-3.114-1.773l-1.878-.731c-2.266-.922-5.973-2.254-5.785-5.297.182-2.974 3.852-3.904 6.021-4.207 1.28-.179 2.616-.248 4.472-.226 4.094.047 7.524.771 7.524.771l-.326 3.274s-3.648-.783-7.31-.778c-2.335.002-3.116.259-3.243.647-.223.691 1.063 1.185 2.766 1.856l2.434 1.002zM35.332 4.989h-6.805l.319-4.145h5.273c1.093 0 1.472.458 1.412 1.386-.026.398-.199 2.759-.199 2.759zm-1.416 17.584h-6.797l1.238-15.81h6.804l-1.245 15.81zm-16.998-.001l.76-9.602H7.719l-.761 9.602H0L1.721.844H6.86c.573 0 1.723.051 1.707 1.386l-.491 6.209h9.962l.599-7.595h6.934l-1.718 21.728h-6.935z"/></svg>