<svg xmlns="http://www.w3.org/2000/svg" viewBox="0 0 12 9"><path d="M12.005 1.063c-.442.18-.917.302-1.415.357A2.323 2.323 0 0 0 11.673.164a5.209 5.209 0 0 1-1.565.551A2.559 2.559 0 0 0 8.31-.002c-1.361 0-2.464 1.017-2.464 2.271 0 .178.022.351.064.517C3.862 2.692 2.047 1.787.832.414a2.116 2.116 0 0 0-.334 1.141c0 .788.435 1.483 1.096 1.89a2.59 2.59 0 0 1-1.116-.284v.029c0 1.1.849 2.018 1.976 2.227a2.658 2.658 0 0 1-1.113.039c.314.902 1.224 1.559 2.302 1.577a5.215 5.215 0 0 1-3.06.972c-.199 0-.395-.011-.588-.032a7.417 7.417 0 0 0 3.777 1.02c4.532 0 7.01-3.46 7.01-6.461 0-.098-.002-.196-.007-.294.482-.32.899-.72 1.23-1.175z" fill-rule="evenodd"/></svg>