<svg viewBox="0 0 30 19" xmlns="http://www.w3.org/2000/svg"><path d="M29.326 1.777c.204-.68 0-1.18-.97-1.18h-3.213c-.816 0-1.193.431-1.397.908 0 0-1.633 3.98-3.947 6.567-.749.748-1.089.986-1.497.986-.204 0-.5-.238-.5-.918V1.777c0-.817-.237-1.18-.917-1.18h-5.048c-.51 0-.817.378-.817.737 0 .775 1.157.953 1.276 3.13v4.73c0 1.037-.187 1.225-.595 1.225-1.09 0-3.738-3.998-5.308-8.574C6.085.955 5.776.596 4.955.596H1.743c-.917 0-1.1.432-1.1.909 0 .85 1.088 5.07 5.07 10.65 2.653 3.81 6.392 5.876 9.795 5.876 2.042 0 2.294-.458 2.294-1.249v-2.88c0-.918.194-1.1.84-1.1.476 0 1.293.237 3.199 2.075 2.177 2.178 2.536 3.154 3.761 3.154h3.212c.918 0 1.376-.458 1.112-1.364-.29-.902-1.33-2.212-2.71-3.764-.748-.884-1.87-1.837-2.211-2.314-.476-.612-.34-.884 0-1.429 0 0 3.913-5.512 4.321-7.383z"/></svg>