<svg id="Слой_1" data-name="Слой 1" xmlns="http://www.w3.org/2000/svg" viewBox="0 0 15.99 12"><defs><style>.cls-1{fill:none;}</style></defs><title>youtube</title><path class="cls-1" d="M15.84,2.59A3.82,3.82,0,0,0,15.2.9,2.23,2.23,0,0,0,13.6.17C11.36,0,8,0,8,0H8S4.64,0,2.4.17A2.23,2.23,0,0,0,.8.9,3.82,3.82,0,0,0,.16,2.59,27.46,27.46,0,0,0,0,5.35V6.64A27.53,27.53,0,0,0,.16,9.41,3.86,3.86,0,0,0,.8,11.1a2.61,2.61,0,0,0,1.76.73C3.84,12,8,12,8,12s3.36,0,5.6-.18a2.21,2.21,0,0,0,1.6-.72,3.86,3.86,0,0,0,.64-1.69A27.46,27.46,0,0,0,16,6.65V5.35A27.46,27.46,0,0,0,15.84,2.59ZM6,9V3l5,3Z" transform="translate(0)"/></svg>